<svg width="32" height="32" viewBox="0 0 32 32" fill="none" xmlns="http://www.w3.org/2000/svg">
<path d="M23.3883 8.3883C23.9061 8.90607 23.9061 9.74602 23.3883 10.2638L17.7639 15.8882L23.389 21.5133C23.9065 22.031 23.9059 22.8704 23.3883 23.3881C22.8706 23.9058 22.0313 23.9063 21.5135 23.3888L15.8884 17.7637L10.2633 23.3888C9.74555 23.9063 8.90623 23.9058 8.38854 23.3881C7.87089 22.8704 7.87031 22.031 8.38784 21.5133L14.0129 15.8882L8.38854 10.2638C7.87077 9.74602 7.87077 8.90607 8.38854 8.3883C8.90631 7.87062 9.74629 7.87056 10.264 8.3883L15.8884 14.0127L21.5128 8.3883C22.0306 7.87055 22.8705 7.87058 23.3883 8.3883Z" fill="white"/>
</svg>
